<mxfile host="app.diagrams.net" modified="2023-02-02T16:34:06.692Z" agent="5.0 (Windows NT 10.0; Win64; x64) AppleWebKit/537.36 (KHTML, like Gecko) Chrome/109.0.0.0 Safari/537.36" etag="94K2dSNd2l0xRq3G_Hrg" version="20.8.15" type="github">
  <diagram name="Page-1" id="DSJbVRBxlxP7Pp0C1jtO">
    <mxGraphModel dx="802" dy="811" grid="1" gridSize="10" guides="1" tooltips="1" connect="1" arrows="1" fold="1" page="1" pageScale="1" pageWidth="827" pageHeight="1169" math="0" shadow="0">
      <root>
        <mxCell id="0" />
        <mxCell id="1" parent="0" />
        <mxCell id="lOqjXZFOxpRsxen4uI37-1" value="" style="edgeStyle=orthogonalEdgeStyle;rounded=0;orthogonalLoop=1;jettySize=auto;html=1;" edge="1" parent="1" source="lOqjXZFOxpRsxen4uI37-5" target="lOqjXZFOxpRsxen4uI37-6">
          <mxGeometry relative="1" as="geometry" />
        </mxCell>
        <mxCell id="lOqjXZFOxpRsxen4uI37-2" value="" style="edgeStyle=orthogonalEdgeStyle;rounded=0;orthogonalLoop=1;jettySize=auto;html=1;" edge="1" parent="1" source="lOqjXZFOxpRsxen4uI37-5" target="lOqjXZFOxpRsxen4uI37-7">
          <mxGeometry relative="1" as="geometry" />
        </mxCell>
        <mxCell id="lOqjXZFOxpRsxen4uI37-3" value="" style="edgeStyle=orthogonalEdgeStyle;rounded=0;orthogonalLoop=1;jettySize=auto;html=1;" edge="1" parent="1" source="lOqjXZFOxpRsxen4uI37-5" target="lOqjXZFOxpRsxen4uI37-9">
          <mxGeometry relative="1" as="geometry" />
        </mxCell>
        <mxCell id="lOqjXZFOxpRsxen4uI37-4" style="edgeStyle=orthogonalEdgeStyle;rounded=0;orthogonalLoop=1;jettySize=auto;html=1;exitX=1;exitY=0.5;exitDx=0;exitDy=0;entryX=0;entryY=0.5;entryDx=0;entryDy=0;" edge="1" parent="1" source="lOqjXZFOxpRsxen4uI37-5" target="lOqjXZFOxpRsxen4uI37-8">
          <mxGeometry relative="1" as="geometry" />
        </mxCell>
        <mxCell id="lOqjXZFOxpRsxen4uI37-5" value="Human Ressources" style="ellipse;whiteSpace=wrap;html=1;aspect=fixed;" vertex="1" parent="1">
          <mxGeometry x="369" y="390" width="90" height="90" as="geometry" />
        </mxCell>
        <mxCell id="lOqjXZFOxpRsxen4uI37-6" value="Employee Management" style="whiteSpace=wrap;html=1;" vertex="1" parent="1">
          <mxGeometry x="354" y="235" width="120" height="60" as="geometry" />
        </mxCell>
        <mxCell id="lOqjXZFOxpRsxen4uI37-7" value="Leave management" style="whiteSpace=wrap;html=1;" vertex="1" parent="1">
          <mxGeometry x="184" y="405" width="120" height="60" as="geometry" />
        </mxCell>
        <mxCell id="lOqjXZFOxpRsxen4uI37-8" value="MDI Form Management" style="whiteSpace=wrap;html=1;" vertex="1" parent="1">
          <mxGeometry x="560" y="405" width="120" height="60" as="geometry" />
        </mxCell>
        <mxCell id="lOqjXZFOxpRsxen4uI37-9" value="Login Management" style="whiteSpace=wrap;html=1;" vertex="1" parent="1">
          <mxGeometry x="354" y="575" width="120" height="60" as="geometry" />
        </mxCell>
        <mxCell id="lOqjXZFOxpRsxen4uI37-16" style="edgeStyle=orthogonalEdgeStyle;rounded=0;orthogonalLoop=1;jettySize=auto;html=1;exitX=1;exitY=1;exitDx=0;exitDy=0;entryX=0;entryY=0;entryDx=0;entryDy=0;" edge="1" parent="1" source="lOqjXZFOxpRsxen4uI37-10" target="lOqjXZFOxpRsxen4uI37-5">
          <mxGeometry relative="1" as="geometry" />
        </mxCell>
        <mxCell id="lOqjXZFOxpRsxen4uI37-10" value="Attendance Manamgent" style="rounded=0;whiteSpace=wrap;html=1;" vertex="1" parent="1">
          <mxGeometry x="184" y="240" width="120" height="60" as="geometry" />
        </mxCell>
        <mxCell id="lOqjXZFOxpRsxen4uI37-17" style="edgeStyle=orthogonalEdgeStyle;rounded=0;orthogonalLoop=1;jettySize=auto;html=1;exitX=0;exitY=1;exitDx=0;exitDy=0;entryX=1;entryY=0;entryDx=0;entryDy=0;" edge="1" parent="1" source="lOqjXZFOxpRsxen4uI37-11" target="lOqjXZFOxpRsxen4uI37-5">
          <mxGeometry relative="1" as="geometry" />
        </mxCell>
        <mxCell id="lOqjXZFOxpRsxen4uI37-11" value="Generate Attendance Report" style="whiteSpace=wrap;html=1;" vertex="1" parent="1">
          <mxGeometry x="560" y="240" width="120" height="60" as="geometry" />
        </mxCell>
        <mxCell id="lOqjXZFOxpRsxen4uI37-15" style="edgeStyle=orthogonalEdgeStyle;rounded=0;orthogonalLoop=1;jettySize=auto;html=1;exitX=1;exitY=0;exitDx=0;exitDy=0;entryX=0;entryY=1;entryDx=0;entryDy=0;" edge="1" parent="1" source="lOqjXZFOxpRsxen4uI37-12" target="lOqjXZFOxpRsxen4uI37-5">
          <mxGeometry relative="1" as="geometry" />
        </mxCell>
        <mxCell id="lOqjXZFOxpRsxen4uI37-12" value="Generate system user report" style="whiteSpace=wrap;html=1;" vertex="1" parent="1">
          <mxGeometry x="184" y="525" width="120" height="60" as="geometry" />
        </mxCell>
        <mxCell id="lOqjXZFOxpRsxen4uI37-14" style="edgeStyle=orthogonalEdgeStyle;rounded=0;orthogonalLoop=1;jettySize=auto;html=1;exitX=0;exitY=0;exitDx=0;exitDy=0;entryX=1;entryY=1;entryDx=0;entryDy=0;" edge="1" parent="1" source="lOqjXZFOxpRsxen4uI37-13" target="lOqjXZFOxpRsxen4uI37-5">
          <mxGeometry relative="1" as="geometry">
            <Array as="points">
              <mxPoint x="520" y="490" />
              <mxPoint x="446" y="490" />
            </Array>
          </mxGeometry>
        </mxCell>
        <mxCell id="lOqjXZFOxpRsxen4uI37-13" value="Check&amp;nbsp; User Login Details" style="whiteSpace=wrap;html=1;" vertex="1" parent="1">
          <mxGeometry x="520" y="510" width="120" height="60" as="geometry" />
        </mxCell>
      </root>
    </mxGraphModel>
  </diagram>
</mxfile>
